# xmcd
#
# Track frame offsets:
# 150
# 11870
# 21355
# 31987
# 45030
# 50627
# 69017
# 81077
# 91810
# 103947
# 112752
# 127692
# 145742
# 157447
#
# Disc length: 2262 seconds
#
#
# Revision: 2
# Processed by: cddbd v1.5.1PL2 Copyright (c) Steve Scherf et al.
# Submitted via: FreeRIP 2.942 
#
DISCID=a908d40e
DTITLE=Tim Maia - Coleção Obras-Primas
DYEAR=1900
DGENRE=Blues
TTITLE0=O Que Me Importa
TTITLE1=Cristina
TTITLE2=Canário Do Reino
TTITLE3=Não Vou Ficar
TTITLE4=Jurema
TTITLE5=Eu Amo Você
TTITLE6=Música No Ar
TTITLE7=Padre Cícero
TTITLE8=A Festa Do Santo Reis
TTITLE9=Salve, Nossa Senhora
TTITLE10=Azul Da Cor Do Mar
TTITLE11=Você Fingiu
TTITLE12=Risos
TTITLE13=Preciso Aprender A Ser Só
EXTD=
EXTT0=
EXTT1=
EXTT2=
EXTT3=
EXTT4=
EXTT5=
EXTT6=
EXTT7=
EXTT8=
EXTT9=
EXTT10=
EXTT11=
EXTT12=
EXTT13=
PLAYORDER=
